<svg width="18" height="8" viewBox="0 0 18 8" fill="none" xmlns="http://www.w3.org/2000/svg">
<rect width="18" height="8" fill="#1E1E1E"/>
<g id="Select Ticket">
<path d="M-1554 -195C-1554 -254.647 -1505.65 -303 -1446 -303H811C870.647 -303 919 -254.647 919 -195V1938C919 1997.65 870.647 2046 811 2046H-1446C-1505.65 2046 -1554 1997.65 -1554 1938V-195Z" fill="#202526"/>
<path d="M-1446 -302H811V-304H-1446V-302ZM918 -195V1938H920V-195H918ZM811 2045H-1446V2047H811V2045ZM-1553 1938V-195H-1555V1938H-1553ZM-1446 2045C-1505.09 2045 -1553 1997.09 -1553 1938H-1555C-1555 1998.2 -1506.2 2047 -1446 2047V2045ZM918 1938C918 1997.09 870.094 2045 811 2045V2047C871.199 2047 920 1998.2 920 1938H918ZM811 -302C870.094 -302 918 -254.094 918 -195H920C920 -255.199 871.199 -304 811 -304V-302ZM-1446 -304C-1506.2 -304 -1555 -255.199 -1555 -195H-1553C-1553 -254.095 -1505.09 -302 -1446 -302V-304Z" fill="white" fill-opacity="0.1"/>
<g id="Select Ticket_2" clip-path="url(#clip0_0_1)">
<rect width="1440" height="1118" transform="translate(-1263 -58)" fill="#02191D"/>
<g id="Multi Step Form">
<rect width="1440" height="1126" transform="translate(-1263 -24)" fill="#02191D"/>
<rect width="1440" height="1126" transform="translate(-1263 -24)" fill="url(#paint0_radial_0_1)"/>
</g>
<g id="Header" filter="url(#filter0_b_0_1)">
<rect x="-1143" y="-34" width="1200" height="76" rx="24" fill="#05252C" fill-opacity="0.4"/>
<rect x="-1142.5" y="-33.5" width="1199" height="75" rx="23.5" stroke="#197686"/>
<g id="btns">
<g id="Link">
<rect x="-128" y="-22" width="169" height="52" rx="12" fill="white"/>
<rect x="-127.5" y="-21.5" width="168" height="51" rx="11.5" stroke="#D5EA00" stroke-opacity="0.1"/>
<g id="div">
<path id="Line 5" d="M1 3.5C0.723858 3.5 0.5 3.72386 0.5 4C0.5 4.27614 0.723858 4.5 1 4.5V3.5ZM17.3536 4.35355C17.5488 4.15829 17.5488 3.84171 17.3536 3.64645L14.1716 0.464466C13.9763 0.269204 13.6597 0.269204 13.4645 0.464466C13.2692 0.659728 13.2692 0.976311 13.4645 1.17157L16.2929 4L13.4645 6.82843C13.2692 7.02369 13.2692 7.34027 13.4645 7.53553C13.6597 7.7308 13.9763 7.7308 14.1716 7.53553L17.3536 4.35355ZM1 4.5L17 4.5V3.5L1 3.5V4.5Z" fill="#0A0C11"/>
</g>
</g>
</g>
</g>
</g>
</g>
<defs>
<filter id="filter0_b_0_1" x="-1147" y="-38" width="1208" height="84" filterUnits="userSpaceOnUse" color-interpolation-filters="sRGB">
<feFlood flood-opacity="0" result="BackgroundImageFix"/>
<feGaussianBlur in="BackgroundImageFix" stdDeviation="2"/>
<feComposite in2="SourceAlpha" operator="in" result="effect1_backgroundBlur_0_1"/>
<feBlend mode="normal" in="SourceGraphic" in2="effect1_backgroundBlur_0_1" result="shape"/>
</filter>
<radialGradient id="paint0_radial_0_1" cx="0" cy="0" r="1" gradientUnits="userSpaceOnUse" gradientTransform="translate(720 1099.61) rotate(-90) scale(368.369 756.277)">
<stop stop-color="#24A0B5" stop-opacity="0.2"/>
<stop offset="1" stop-color="#24A0B5" stop-opacity="0"/>
</radialGradient>
<clipPath id="clip0_0_1">
<rect width="1440" height="1118" fill="white" transform="translate(-1263 -58)"/>
</clipPath>
</defs>
</svg>
